<?xml version="1.0" encoding="UTF-8"?>
<svg id="Layer_11" xmlns="http://www.w3.org/2000/svg" version="1.1" viewBox="0 0 600 95.26">
  <!-- Generator: Adobe Illustrator 29.7.1, SVG Export Plug-In . SVG Version: 2.1.1 Build 8)  -->
  <g>
    <path d="M49.88,25.41c-.02,3.14-.86,6.16-2.38,8.79,2.68-1.49,5.77-2.31,8.97-2.33l6.99-.03c-3.11-5.6-7.83-10.22-13.55-13.27l-.03,6.85Z"/>
    <path d="M56.47,63.39c-3.21-.02-6.29-.84-8.97-2.33,1.53,2.63,2.36,5.65,2.38,8.79l.03,6.85c5.72-3.05,10.43-7.67,13.55-13.27l-6.99-.03Z"/>
    <path d="M60.87,39.19l-2.81.02h-1.06c-5.42.04-9.79,3.8-9.8,8.41.01,4.61,4.38,8.37,9.8,8.4h1.06s2.81.03,2.81.03l5.58.02c.73-2.7,1.12-5.53,1.12-8.45s-.39-5.75-1.12-8.45l-5.58.02Z"/>
    <path d="M33.78,52.93c2.58,0,5.11.69,7.37,1.92-1.26-2.22-1.95-4.69-1.96-7.22,0-2.53.7-5,1.96-7.22-2.26,1.23-4.79,1.91-7.37,1.92-2.58,0-5.11-.69-7.37-1.92,1.26,2.22,1.95,4.69,1.96,7.22,0,2.53-.7,5-1.96,7.22,2.26-1.23,4.79-1.91,7.37-1.92Z"/>
    <path d="M25.17,21.1l.02,2.76v1.03c.04,5.31,3.88,9.59,8.59,9.6,4.71-.01,8.54-4.29,8.58-9.6v-1.03s.03-2.76.03-2.76l.03-5.47c-2.76-.71-5.65-1.09-8.64-1.09s-5.88.38-8.63,1.1l.03,5.46Z"/>
    <path d="M42.39,74.15l-.02-2.75v-1.03c-.04-5.31-3.88-9.59-8.59-9.6-4.71.01-8.54,4.29-8.58,9.6v1.03s-.03,2.76-.03,2.76l-.03,5.47c2.76.71,5.65,1.1,8.63,1.1s5.88-.38,8.63-1.1l-.03-5.47Z"/>
    <path d="M17.68,69.85c.02-3.14.86-6.16,2.38-8.79-2.68,1.49-5.77,2.31-8.97,2.33l-6.99.03c3.11,5.6,7.83,10.22,13.55,13.27l.03-6.85Z"/>
    <path d="M6.7,56.05l2.81-.02h1.06c5.42-.04,9.79-3.8,9.8-8.41-.01-4.61-4.38-8.37-9.8-8.4h-1.06s-2.81-.03-2.81-.03l-5.58-.02c-.73,2.7-1.12,5.54-1.12,8.46s.39,5.75,1.12,8.45l5.58-.03Z"/>
    <path d="M11.09,31.86c3.21.02,6.29.84,8.97,2.33-1.53-2.63-2.36-5.65-2.38-8.79l-.04-6.85c-5.72,3.05-10.43,7.67-13.55,13.27l7,.03Z"/>
  </g>
  <path d="M134.46,67.8c-11.19,10.43-28.85,10.15-39.7-.62-10.85-10.77-10.88-28.07-.08-38.89,10.8-10.81,28.46-11.16,39.7-.78l-6.48,6.73c-7.49-6.92-19.26-6.69-26.46.52-7.2,7.21-7.18,18.74.06,25.92,7.23,7.18,19,7.36,26.46.41l6.51,6.71Z"/>
  <path d="M203.51,47.93c0,15.33-12.69,27.76-28.34,27.76s-28.34-12.43-28.34-27.76,12.69-27.76,28.34-27.76c15.64.01,28.33,12.43,28.34,27.76ZM194.06,47.93c0-10.22-8.46-18.5-18.89-18.5s-18.89,8.29-18.89,18.5,8.46,18.5,18.89,18.5c10.43,0,18.88-8.29,18.89-18.5Z"/>
  <path d="M264.86,20.05v55.71l-35.43-33.92v33.71h-9.45V19.86l35.43,33.92V20.05h9.45Z"/>
  <path d="M315.46,59.61v.26c-.01,8.54-7.08,15.46-15.79,15.47h-2.5c-7.68.01-14.25-5.4-15.56-12.81l9.31-1.58c.53,2.98,3.17,5.15,6.25,5.14h2.5c3.5,0,6.34-2.79,6.35-6.22v-.26c0-2.59-1.65-4.9-4.12-5.82l-10.27-3.78c-7.15-2.63-11.36-9.88-10-17.25s7.9-12.71,15.54-12.71h2.5c6.03-.02,11.54,3.33,14.18,8.64l-8.47,4.08c-1.06-2.13-3.28-3.49-5.7-3.48h-2.5c-3.07,0-5.7,2.15-6.25,5.11-.55,2.96,1.15,5.88,4.02,6.93l10.27,3.78c6.15,2.29,10.22,8.05,10.25,14.5Z"/>
  <path d="M366.6,20.06v9.25h-12.6v46.25h-9.45V29.31h-12.6v-9.25h34.65Z"/>
  <path d="M422.5,75.53h-10.24l-3.92-9.2h-19.37l-3.94,9.2h-10.24l23.92-55.93,23.78,55.93ZM404.42,57.08l-5.72-13.46-5.76,13.46s11.48,0,11.48,0Z"/>
  <path d="M483.85,20.05v55.71l-35.43-33.92v33.71h-9.45V19.86l35.43,33.92V20.05h9.45Z"/>
  <path d="M548.22,67.9c-11.19,10.43-28.85,10.15-39.7-.62-10.85-10.77-10.88-28.07-.08-38.89,10.8-10.81,28.46-11.16,39.7-.78l-6.48,6.73c-7.49-6.92-19.26-6.69-26.46.52-7.2,7.21-7.18,18.74.06,25.92,7.23,7.18,19,7.36,26.46.41l6.52,6.71Z"/>
  <path d="M574.15,29.31v13.88h21.91v9.25h-21.91v13.86h25.85v9.25h-35.3V20.05h35.3v9.25h-25.85Z"/>
</svg>